<svg width="81" height="32" viewBox="0 0 81 32" fill="none" xmlns="http://www.w3.org/2000/svg">
<path fill-rule="evenodd" clip-rule="evenodd" d="M32.048 29.3206C37.1071 31.6601 42.9382 31.6601 47.9973 29.3206L71.5778 18.4165C75.0501 16.8108 77.6551 14.5294 79.4611 11.8829C82.0023 8.15903 75.6697 6.27807 71.5778 8.17027L47.9973 19.0744C42.9382 21.4138 37.1071 21.4138 32.048 19.0744L8.46747 8.17027C4.37555 6.27808 -1.957 8.15904 0.584142 11.8829C2.39017 14.5294 4.99518 16.8108 8.46747 18.4165L32.048 29.3206Z" fill="#6784ED"/>
<path fill-rule="evenodd" clip-rule="evenodd" d="M30.9155 8.36196C35.8068 10.6238 41.4446 10.6238 46.3359 8.36196C48.9134 7.17007 50.9966 5.59307 52.6155 3.76685C55.1486 0.909154 49.8021 -1.02261 46.3359 0.580221C41.4446 2.84208 35.8068 2.84208 30.9155 0.580219C27.4493 -1.02261 22.1028 0.909149 24.6359 3.76684C26.2548 5.59307 28.338 7.17007 30.9155 8.36196Z" fill="#6784ED"/>
</svg>
