<svg width="19" height="19" viewBox="0 0 19 19" fill="none" xmlns="http://www.w3.org/2000/svg">
<circle cx="10.1442" cy="9.29274" r="8.47523" fill="#6784ED" stroke="#6784ED" stroke-width="0.5"/>
<circle cx="8.72523" cy="8.72523" r="8.47523" fill="white" stroke="#6784ED" stroke-width="0.5"/>
<path d="M6.77867 6.80335L9.3085 5.96007L6.0002 12.5767L5.88839 12.8003L6.112 12.9121L7.00027 13.3562L7.22388 13.468L7.33568 13.2444L10.644 6.62782L11.4873 9.15764C11.6176 9.5488 12.0404 9.76019 12.4316 9.62981C12.8227 9.49942 13.0341 9.07663 12.9038 8.68548L11.4905 4.44579C11.3601 4.05464 10.9373 3.84324 10.5462 3.97363L6.30651 5.38686C5.91535 5.51724 5.70396 5.94003 5.83434 6.33119C5.96473 6.72234 6.38752 6.93373 6.77867 6.80335Z" fill="#6784ED" stroke="#6784ED" stroke-width="0.5"/>
</svg>
