<svg width="77" height="62" viewBox="0 0 77 62" fill="none" xmlns="http://www.w3.org/2000/svg">
<path d="M51.2902 42.3225C47.4683 42.055 44.4635 38.6775 44.4635 34.5489C44.4635 34.4111 44.466 34.2733 44.4736 34.1355V34.1544C44.466 34.0247 44.461 33.8734 44.461 33.7194C44.461 29.5989 47.4709 26.2322 51.2699 25.9864H51.2902C55.1069 26.2079 58.1219 29.5665 58.1219 33.6789C58.1219 33.8464 58.1168 34.0112 58.1067 34.176V34.1544C58.1143 34.2895 58.1193 34.4489 58.1193 34.6083C58.1193 38.7234 55.1069 42.0874 51.3079 42.3198H51.2876L51.2902 42.3225ZM26.0829 42.3225C22.261 42.055 19.2562 38.6775 19.2562 34.5489C19.2562 34.4111 19.2587 34.2733 19.2663 34.1355V34.1544C19.2587 34.0247 19.2537 33.8734 19.2537 33.7194C19.2537 29.5989 22.2636 26.2322 26.0626 25.9864H26.0829C29.8996 26.2079 32.9146 29.5665 32.9146 33.6789C32.9146 33.8464 32.9095 34.0112 32.8994 34.176V34.1544C32.907 34.2841 32.912 34.4354 32.912 34.5894C32.912 38.7099 29.9021 42.0766 26.1031 42.3225H26.0829ZM64.9511 5.31092C60.4918 3.06289 55.3118 1.28499 49.8889 0.255541L49.512 0.196098C49.4994 0.193397 49.4842 0.190695 49.469 0.190695C49.3805 0.190695 49.3046 0.242032 49.2642 0.317687C48.6723 1.4282 48.0299 2.8143 47.4506 4.23554L47.3419 4.53546C44.7367 4.08963 41.7318 3.83565 38.6713 3.83565C35.6108 3.83565 32.606 4.08963 29.6745 4.57869L30.0008 4.53275C29.3179 2.83052 28.6653 1.44711 27.9444 0.106934L28.0481 0.314985C28.0051 0.236628 27.9267 0.187992 27.8382 0.187992C27.8256 0.187992 27.8104 0.187993 27.7977 0.190695C21.998 1.27959 16.8179 3.05478 11.9768 5.47844L12.3587 5.30552C12.3157 5.32443 12.2803 5.35685 12.2575 5.39738C5.03884 16.316 0.71875 29.9015 0.71875 44.5651C0.71875 47.0158 0.840158 49.434 1.07539 51.8172L1.05262 51.52C1.06021 51.5983 1.09815 51.6632 1.15127 51.7091C6.56403 56.0349 12.857 59.5205 19.6482 61.809L20.0934 61.9387C20.1136 61.9468 20.1389 61.9495 20.1642 61.9495C20.2452 61.9495 20.316 61.909 20.359 61.8469C21.7122 59.9015 22.9996 57.6966 24.115 55.3838L24.2339 55.1136C24.2491 55.0811 24.2592 55.0406 24.2592 54.9974C24.2592 54.8866 24.1935 54.7947 24.1024 54.7569H24.0999C21.7931 53.8058 19.843 52.7926 17.9865 51.6307L18.1812 51.7442C18.1079 51.6983 18.0598 51.6145 18.0598 51.52C18.0598 51.4362 18.0978 51.3605 18.1559 51.3146C18.553 50.9958 18.9527 50.6661 19.3321 50.3311C19.3726 50.296 19.4257 50.2743 19.4813 50.2743C19.5167 50.2743 19.5496 50.2825 19.5774 50.296H19.5749C25.1597 53.1628 31.7157 54.838 38.6359 54.838C45.5562 54.838 52.1147 53.1628 57.9676 50.1717L57.6969 50.296C57.7273 50.2798 57.7602 50.2716 57.7981 50.2716C57.8538 50.2716 57.9069 50.2933 57.9473 50.3284C58.3267 50.6634 58.7239 50.9985 59.126 51.3146C59.1842 51.3632 59.2221 51.4389 59.2221 51.5227C59.2221 51.6172 59.1741 51.6983 59.1058 51.7442C57.4339 52.8115 55.4838 53.822 53.4527 54.6569L53.1871 54.7542C53.0961 54.792 53.0303 54.8866 53.0303 54.9947C53.0303 55.0379 53.0404 55.0784 53.0582 55.1136C54.3253 57.7075 55.6102 59.9069 57.0317 61.9955L56.9306 61.8415C56.9736 61.9063 57.0469 61.9495 57.1253 61.9495C57.1506 61.9495 57.1759 61.9441 57.1987 61.9387C64.4452 59.5286 70.7483 56.043 76.333 51.5848L76.1686 51.7118C76.2243 51.6686 76.2597 51.601 76.2673 51.5254C76.4873 49.407 76.6113 46.9482 76.6113 44.4597C76.6113 29.8286 72.2811 16.2782 64.9182 5.18933L65.0497 5.40009C65.0295 5.35685 64.9941 5.32173 64.9536 5.30281L64.9511 5.31092Z" fill="#6784ED"/>
</svg>
