<svg width="67" height="60" viewBox="0 0 67 60" fill="none" xmlns="http://www.w3.org/2000/svg">
<path d="M62.733 0.769795L3.9162 25.0543C-0.053036 26.5962 -0.053036 29.2944 3.19452 30.0654L17.9889 35.0765L23.7624 53.5789C24.484 55.5063 24.1232 56.2772 25.9274 56.2772C27.3707 56.2772 28.0924 55.5063 28.8141 54.7353C29.1749 54.3499 32.4225 50.8806 36.0309 47.026L51.1861 58.9755C54.0729 60.5173 55.877 59.7464 56.5987 56.2772L66.7022 5.78088C67.7847 1.54073 65.2589 -0.772077 62.733 0.769795ZM55.1554 12.3338L27.0099 39.7021L25.9274 52.4225L20.154 33.9201L53.3512 11.5629C54.7945 10.4065 56.2379 11.1774 55.1554 12.3338Z" fill="#8CF2F9"/>
</svg>
