<svg width="71" height="59" viewBox="0 0 71 59" fill="none" xmlns="http://www.w3.org/2000/svg">
<path d="M70.8859 7.45952C68.2373 8.63109 65.4284 9.40054 62.5526 9.74237C65.584 7.92937 67.8527 5.07608 68.9362 1.71422C66.0914 3.40726 62.9723 4.59379 59.7216 5.23564C57.538 2.89927 54.6434 1.3498 51.4885 0.828068C48.3335 0.306359 45.0942 0.841624 42.2749 2.35068C39.4553 3.85973 37.2134 6.25801 35.8976 9.17268C34.5817 12.0873 34.2658 15.3551 34.9986 18.4679C29.2293 18.1788 23.5855 16.6795 18.4333 14.0676C13.2811 11.4556 8.7358 7.78928 5.0925 3.30667C3.8029 5.52168 3.1252 8.03968 3.12884 10.6028C3.12884 15.6335 5.68925 20.0778 9.5819 22.6798C7.27826 22.6072 5.02531 21.9851 3.01086 20.8651V21.0457C3.01156 24.3961 4.17093 27.6432 6.29237 30.2361C8.41384 32.8293 11.3668 34.6091 14.6507 35.2737C12.5122 35.8531 10.2699 35.9385 8.09353 35.5235C9.01939 38.4073 10.824 40.9295 13.2545 42.7366C15.6852 44.544 18.6201 45.5457 21.6485 45.602C18.6387 47.9656 15.1925 49.7132 11.507 50.7441C7.82146 51.7753 3.96886 52.0698 0.169434 51.6108C6.80185 55.8764 14.5226 58.1407 22.4083 58.1334C49.0982 58.1334 63.6939 36.0231 63.6939 16.8476C63.6939 16.2231 63.6767 15.5918 63.6488 14.9741C66.4898 12.9209 68.9417 10.3773 70.8895 7.46299L70.8859 7.45952Z" fill="#A2D8FF"/>
</svg>
